# xmcd CD database file
#
# Track frame offsets:
#	150
#	21951
#	45067
#	66149
#
# Disc length: 1172 seconds
#
# Revision: 8
# Processed by: cddbd v1.5.2PL0 Copyright (c) Steve Scherf et al.
# Submitted via: CDex 1.70beta3
#
DISCID=26049204
DTITLE=玉置成実 - Reason
DYEAR=2004
DGENRE=Anime(J)
TTITLE0=Reason
TTITLE1=Promised Land
TTITLE2=Truth
TTITLE3=y@suo ohotanii/Reason -Instrumental-
EXTD=YEAR: 2004
EXTT0=
EXTT1=
EXTT2=
EXTT3=
PLAYORDER=
